<svg width="70" height="70" viewBox="0 0 70 70" fill="none" xmlns="http://www.w3.org/2000/svg">
<path d="M6.6879 8.75934C7.45067 8.75934 8.06903 8.14098 8.06903 7.3782C8.06903 6.61543 7.45067 5.99707 6.6879 5.99707C5.92512 5.99707 5.30676 6.61543 5.30676 7.3782C5.30676 8.14098 5.92512 8.75934 6.6879 8.75934Z" fill="#5D30DB"/>
<path d="M12.3502 8.75934C13.113 8.75934 13.7313 8.14098 13.7313 7.3782C13.7313 6.61543 13.113 5.99707 12.3502 5.99707C11.5874 5.99707 10.9691 6.61543 10.9691 7.3782C10.9691 8.14098 11.5874 8.75934 12.3502 8.75934Z" fill="#5D30DB"/>
<path d="M18.0127 8.75934C18.7755 8.75934 19.3938 8.14098 19.3938 7.3782C19.3938 6.61543 18.7755 5.99707 18.0127 5.99707C17.2499 5.99707 16.6316 6.61543 16.6316 7.3782C16.6316 8.14098 17.2499 8.75934 18.0127 8.75934Z" fill="#5D30DB"/>
<path d="M66.2402 2.20972H3.75977C1.68656 2.20972 0 3.89628 0 5.96948V28.2324C0 28.7986 0.458965 29.2577 1.02539 29.2577C1.59182 29.2577 2.05078 28.7986 2.05078 28.2324V12.5469H67.9492V17.3062C67.9492 17.8725 68.4082 18.3316 68.9746 18.3316C69.541 18.3316 70 17.8725 70 17.3062V5.96948C70 3.89628 68.3134 2.20972 66.2402 2.20972ZM2.05078 10.4961V5.96935C2.05078 5.02694 2.81736 4.26036 3.75977 4.26036H66.2402C67.1826 4.26036 67.9492 5.02694 67.9492 5.96935V10.4961H2.05078Z" fill="#5D30DB"/>
<path d="M68.9746 21.0547C68.4082 21.0547 67.9492 21.5138 67.9492 22.0801V50.4958C67.9492 51.4382 67.1826 52.2048 66.2402 52.2048H3.75977C2.81736 52.2048 2.05078 51.4382 2.05078 50.4958V33.0289C2.05078 32.4626 1.59182 32.0035 1.02539 32.0035C0.458965 32.0035 0 32.4626 0 33.0289V50.4958C0 52.569 1.68656 54.2556 3.75977 54.2556H66.2402C68.3134 54.2556 70 52.569 70 50.4958V22.0801C70 21.5138 69.541 21.0547 68.9746 21.0547Z" fill="#5D30DB"/>
<path d="M31.5301 20.6953H38.4355C39.0019 20.6953 39.4609 20.2362 39.4609 19.6699C39.4609 19.1036 39.0019 18.6445 38.4355 18.6445H31.5301C30.9637 18.6445 30.5047 19.1036 30.5047 19.6699C30.5047 20.2362 30.9638 20.6953 31.5301 20.6953Z" fill="#5D30DB"/>
<path d="M39.4609 23.8132C39.4609 23.2469 39.0019 22.7878 38.4355 22.7878H31.5301C30.9637 22.7878 30.5047 23.2469 30.5047 23.8132C30.5047 24.3795 30.9637 24.8386 31.5301 24.8386H38.4355C39.0019 24.8386 39.4609 24.3795 39.4609 23.8132Z" fill="#5D30DB"/>
<path d="M62.7598 57.7292H43.9466C43.3802 57.7292 42.9212 58.1883 42.9212 58.7546C42.9212 59.3209 43.3802 59.78 43.9466 59.78H52.343V61.7343H13.8694C13.303 61.7343 12.844 62.1934 12.844 62.7597C12.844 63.326 13.303 63.7851 13.8694 63.7851H52.3429V65.7395H12.4436L8.84735 62.7597L12.4436 59.78H39.187C39.7534 59.78 40.2124 59.3209 40.2124 58.7546C40.2124 58.1883 39.7534 57.7292 39.187 57.7292H12.074C11.8352 57.7292 11.6039 57.8126 11.4198 57.9651L6.58616 61.9701C6.351 62.165 6.21497 62.4544 6.21497 62.7597C6.21497 63.065 6.351 63.3544 6.58616 63.5492L11.4198 67.5544C11.6039 67.7068 11.8352 67.7902 12.074 67.7902H62.7598C63.3262 67.7902 63.7852 67.3311 63.7852 66.7649V58.7546C63.7852 58.1883 63.3262 57.7292 62.7598 57.7292ZM61.7344 65.7395H54.3938V59.78H61.7344V65.7395Z" fill="#5D30DB"/>
<path d="M14.0075 31.0744C13.4411 31.0744 12.9821 31.5335 12.9821 32.0998V36.1844H7.10211C6.53569 36.1844 6.07672 36.6435 6.07672 37.2098V48.2584C6.07672 48.8247 6.53569 49.2838 7.10211 49.2838H20.9129C21.4793 49.2838 21.9383 48.8247 21.9383 48.2584V37.2098C21.9383 36.6435 21.4793 36.1844 20.9129 36.1844H15.0329V33.1251H33.9746V36.1844H28.0946C27.5282 36.1844 27.0692 36.6435 27.0692 37.2098V48.2584C27.0692 48.8247 27.5282 49.2838 28.0946 49.2838H41.9054C42.4718 49.2838 42.9308 48.8247 42.9308 48.2584V37.2098C42.9308 36.6435 42.4718 36.1844 41.9054 36.1844H36.0254V33.1251H54.9671V36.1844H49.0871C48.5206 36.1844 48.0617 36.6435 48.0617 37.2098V48.2584C48.0617 48.8247 48.5206 49.2838 49.0871 49.2838H62.8979C63.4643 49.2838 63.9232 48.8247 63.9232 48.2584V37.2098C63.9232 36.6435 63.4643 36.1844 62.8979 36.1844H57.0179V32.0998C57.0179 31.5335 56.5589 31.0744 55.9925 31.0744H36.0254V28.2913H41.9054C42.4718 28.2913 42.9308 27.8322 42.9308 27.2659V16.2173C42.9308 15.651 42.4718 15.1919 41.9054 15.1919H28.0946C27.5282 15.1919 27.0692 15.651 27.0692 16.2173V27.2659C27.0692 27.8322 27.5282 28.2913 28.0946 28.2913H33.9746V31.0744H14.0075ZM19.8875 47.233H8.1275V38.2351H19.8875V47.233ZM40.88 47.233H29.12V38.2351H40.88V47.233ZM61.8725 47.233H50.1125V38.2351H61.8725V47.233ZM29.12 17.2427H40.88V26.2405H29.12V17.2427Z" fill="#5D30DB"/>
<path d="M51.5144 40.6626C51.5144 41.2289 51.9734 41.688 52.5398 41.688H59.4452C60.0116 41.688 60.4706 41.2289 60.4706 40.6626C60.4706 40.0963 60.0116 39.6372 59.4452 39.6372H52.5398C51.9734 39.6372 51.5144 40.0962 51.5144 40.6626Z" fill="#5D30DB"/>
<path d="M59.4452 43.7805H52.5398C51.9734 43.7805 51.5144 44.2396 51.5144 44.8059C51.5144 45.3722 51.9734 45.8313 52.5398 45.8313H59.4452C60.0116 45.8313 60.4706 45.3722 60.4706 44.8059C60.4706 44.2396 60.0115 43.7805 59.4452 43.7805Z" fill="#5D30DB"/>
<path d="M30.522 40.6626C30.522 41.2289 30.9809 41.688 31.5474 41.688H38.4528C39.0192 41.688 39.4781 41.2289 39.4781 40.6626C39.4781 40.0963 39.0192 39.6372 38.4528 39.6372H31.5474C30.9811 39.6372 30.522 40.0962 30.522 40.6626Z" fill="#5D30DB"/>
<path d="M38.4528 43.7805H31.5474C30.9809 43.7805 30.522 44.2396 30.522 44.8059C30.522 45.3722 30.9809 45.8313 31.5474 45.8313H38.4528C39.0192 45.8313 39.4781 45.3722 39.4781 44.8059C39.4781 44.2396 39.019 43.7805 38.4528 43.7805Z" fill="#5D30DB"/>
<path d="M9.52942 40.6626C9.52942 41.2289 9.98838 41.688 10.5548 41.688H17.4602C18.0266 41.688 18.4856 41.2289 18.4856 40.6626C18.4856 40.0963 18.0266 39.6372 17.4602 39.6372H10.5548C9.98852 39.6372 9.52942 40.0962 9.52942 40.6626Z" fill="#5D30DB"/>
<path d="M17.4602 43.7805H10.5548C9.98838 43.7805 9.52942 44.2396 9.52942 44.8059C9.52942 45.3722 9.98838 45.8313 10.5548 45.8313H17.4602C18.0266 45.8313 18.4856 45.3722 18.4856 44.8059C18.4856 44.2396 18.0266 43.7805 17.4602 43.7805Z" fill="#5D30DB"/>
</svg>
