<svg width="30" height="30" viewBox="0 0 30 30" fill="none" xmlns="http://www.w3.org/2000/svg">
<g clip-path="url(#clip0)">
<path d="M14.9999 30C16.7983 30 18.3469 28.9137 19.0264 27.3633H10.9734C11.6529 28.9137 13.2016 30 14.9999 30Z" fill="#333366"/>
<path d="M24.0821 14.5232V12.5977C24.0821 8.50652 21.3627 5.039 17.6368 3.90645V2.63672C17.6368 1.18283 16.454 0 15.0001 0C13.5462 0 12.3633 1.18283 12.3633 2.63672V3.90645C8.63737 5.039 5.91804 8.50646 5.91804 12.5977V14.5232C5.91804 18.1168 4.54823 21.5244 2.06099 24.1182C1.81724 24.3724 1.74874 24.7475 1.8869 25.0714C2.02507 25.3953 2.34323 25.6055 2.69538 25.6055H27.3048C27.6569 25.6055 27.975 25.3953 28.1132 25.0714C28.2513 24.7475 28.1828 24.3724 27.9391 24.1182C25.4519 21.5244 24.0821 18.1168 24.0821 14.5232ZM15.879 3.55828C15.5897 3.53039 15.2966 3.51562 15.0001 3.51562C14.7036 3.51562 14.4104 3.53039 14.1212 3.55828V2.63672C14.1212 2.15209 14.5154 1.75781 15.0001 1.75781C15.4847 1.75781 15.879 2.15209 15.879 2.63672V3.55828Z" fill="#333366"/>
<path d="M26.4257 12.5976C26.4257 13.083 26.8193 13.4766 27.3046 13.4766C27.79 13.4766 28.1836 13.083 28.1836 12.5976C28.1836 9.07617 26.8122 5.76544 24.3222 3.27538C23.979 2.9322 23.4225 2.93214 23.0792 3.27538C22.736 3.61863 22.736 4.17509 23.0792 4.51833C25.2373 6.6764 26.4257 9.54568 26.4257 12.5976Z" fill="#333366"/>
<path d="M2.69531 13.4766C3.1807 13.4766 3.57422 13.083 3.57422 12.5976C3.57422 9.54573 4.76273 6.67645 6.92074 4.51839C7.26398 4.17514 7.26398 3.61868 6.92074 3.27544C6.57756 2.93219 6.02104 2.93219 5.67779 3.27544C3.18773 5.7655 1.81641 9.07616 1.81641 12.5976C1.81641 13.083 2.20992 13.4766 2.69531 13.4766Z" fill="#333366"/>
</g>
<defs>
<clipPath id="clip0">
<rect width="30" height="30" fill="white"/>
</clipPath>
</defs>
</svg>
