<svg width="105" height="31" viewBox="0 0 105 31" fill="none" xmlns="http://www.w3.org/2000/svg">
<path d="M17.0556 2.98021C16.691 2.39298 16.2157 1.88156 15.6558 1.47418C15.0902 1.08939 14.4707 0.789959 13.8171 0.585627C13.107 0.354422 12.3738 0.200412 11.6304 0.126289C10.7603 0.0418879 9.88651 0.00167497 9.01235 0.00580637H1.44583C1.27043 -0.0106812 1.0935 0.00803114 0.925505 0.0608348C0.75751 0.113638 0.601873 0.199459 0.467813 0.313214C0.333753 0.426968 0.223997 0.566342 0.145047 0.723079C0.0660973 0.879815 0.0195593 1.05073 0.00819004 1.22569C0.00819004 1.22569 0.00819004 1.27087 0.00819004 1.29346V13.5224C1.05723 15.7626 2.79931 17.6098 4.97939 18.7935V16.3387C4.96279 16.1493 4.98388 15.9585 5.04147 15.7772C5.09906 15.5959 5.19201 15.4277 5.31501 15.2822C5.438 15.1367 5.58863 15.0168 5.75825 14.9293C5.92788 14.8419 6.11318 14.7885 6.30354 14.7724H8.57349C11.6707 14.7724 14.034 14.1273 15.6633 12.8372C17.2926 11.547 18.1199 9.63435 18.1451 7.0992C18.1478 6.36861 18.0614 5.6404 17.8879 4.93052C17.7149 4.24101 17.434 3.58286 17.0556 2.98021V2.98021ZM12.6216 9.26788C12.3577 9.71977 11.9654 10.0839 11.4942 10.3146C10.9835 10.5573 10.4318 10.7029 9.86737 10.7438C9.24741 10.8206 8.62318 10.8583 7.99844 10.8567H5.81928C5.29719 10.8567 4.97183 10.4351 4.97183 9.81758V4.77239C4.9643 4.66169 4.98145 4.55071 5.02204 4.44737C5.06263 4.34404 5.12567 4.25091 5.20664 4.17464C5.28761 4.09838 5.38452 4.04086 5.49043 4.00621C5.59633 3.97156 5.70863 3.96062 5.81928 3.97419H7.99844C8.70464 3.97419 9.3705 3.99427 9.996 4.03443C10.5535 4.06106 11.1006 4.19399 11.6077 4.426C12.0742 4.63271 12.4634 4.98052 12.7199 5.41998C13.0096 6.00922 13.1425 6.6626 13.1058 7.31757C13.1205 7.99646 12.9534 8.66701 12.6216 9.26035V9.26788ZM4.98696 19.5315C3.12102 18.8615 1.42265 17.7981 0.00819004 16.414V22.3251C-0.00765528 22.4377 -0.000458861 22.5524 0.0293467 22.6621C0.0591523 22.7719 0.110952 22.8745 0.181631 22.9639C0.25231 23.0532 0.34041 23.1274 0.440634 23.182C0.540858 23.2365 0.651137 23.2704 0.764842 23.2815H4.18491C5.09289 23.2815 4.98696 22.3176 4.98696 22.3176V19.5315ZM51.9902 6.44408H49.0392C48.7576 6.42574 48.4785 6.50716 48.2514 6.67392C48.0243 6.84067 47.8638 7.08202 47.7983 7.35522L44.3707 16.7528C44.3707 16.7528 41.3441 8.19107 41.1171 7.52842C41.0533 7.22266 40.8866 6.94775 40.6444 6.74919C40.4022 6.55063 40.0991 6.44033 39.7854 6.43655H37.069C36.1005 6.43655 36.1005 7.18956 36.2291 7.48324C36.3578 7.77691 40.0729 17.9125 41.5257 21.7905C41.7545 22.2679 41.9149 22.7748 42.0024 23.2965C41.9082 23.8114 41.7128 24.3028 41.4273 24.7423C41.3169 24.9287 41.1903 25.105 41.049 25.2694C43.8486 24.4411 47.1022 21.4215 48.7366 18.161C50.3861 13.6429 52.5577 7.61878 52.656 7.31004C52.762 6.83564 52.762 6.44408 51.9902 6.44408ZM38.8396 26.1881C38.5865 26.1813 38.3339 26.1612 38.0829 26.1279C37.7727 26.0827 37.1825 26.1279 37.1825 26.655V28.914C37.1825 29.78 37.6062 29.8402 37.8257 29.9005C38.5264 30.0535 39.242 30.1292 39.9594 30.1264C40.8072 30.1486 41.6487 29.9759 42.4185 29.6219C43.1228 29.2678 43.7482 28.776 44.2572 28.1761C44.8344 27.5193 45.3228 26.7902 45.71 26.0074C46.1287 25.174 46.5272 24.2529 46.9055 23.2438L47.3443 22.0465C46.4666 22.9125 42.5926 26.5496 38.8396 26.1881ZM34.3753 9.1474C34.2145 8.76689 33.995 8.41373 33.7246 8.10071C33.4512 7.81075 33.1408 7.5576 32.8015 7.34769C32.4349 7.09926 32.0446 6.88739 31.6362 6.71516C31.2205 6.55482 30.793 6.42643 30.3575 6.33112C29.8591 6.22141 29.3533 6.14842 28.8442 6.11275C28.2994 6.05753 27.689 6.02992 27.0131 6.02992C22.5035 6.02992 19.9359 7.44559 19.3104 10.2769C19.2837 10.3825 19.2803 10.4925 19.3005 10.5994C19.3206 10.7064 19.3638 10.8077 19.4271 10.8965C19.4904 10.9852 19.5722 11.0593 19.667 11.1135C19.7618 11.1677 19.8673 11.2009 19.9762 11.2107H22.7531C23.5098 11.2107 23.5098 10.9772 23.7973 10.3296C23.9233 9.97706 24.1494 9.66842 24.4481 9.44107C25.1576 8.98528 25.9967 8.77123 26.8391 8.83113C27.6247 8.75123 28.4137 8.94555 29.0712 9.38083C29.5727 9.84671 29.8691 10.4908 29.8959 11.173C29.8959 12.1067 29.6084 12.7242 28.4432 12.7242C25.6814 12.6263 22.7153 12.9351 21.0431 13.8914C20.2199 14.3915 19.5442 15.0992 19.0845 15.9429C18.6247 16.7866 18.3972 17.7362 18.4251 18.6956C18.4061 19.4429 18.5588 20.1847 18.8715 20.8643C19.1661 21.4549 19.5933 21.9702 20.12 22.3703C20.6729 22.8191 21.3111 23.152 21.9965 23.3492C22.7708 23.5579 23.5703 23.6592 24.3724 23.6505C25.4515 23.6671 26.5265 23.5147 27.5579 23.1986C28.4695 22.8269 29.3312 22.3438 30.1229 21.7604V22.2875C30.1229 22.8071 30.2818 23.2739 30.8796 23.2739H34.0954C34.7461 23.2739 34.8974 22.8146 34.8974 22.2423V12.3854C34.9013 11.7706 34.8583 11.1563 34.7688 10.548C34.6974 10.0665 34.5652 9.59593 34.3753 9.1474V9.1474ZM29.9792 18.8312C29.9792 18.8312 29.1469 20.5631 26.1959 20.5631C25.4883 20.5955 24.7887 20.403 24.1984 20.0134C23.9385 19.8126 23.7332 19.5504 23.6011 19.2505C23.4689 18.9507 23.4142 18.6228 23.4417 18.2965C23.4092 17.8584 23.5111 17.4207 23.7341 17.0415C23.957 16.6623 24.2904 16.3595 24.6902 16.173C25.8839 15.7166 27.1576 15.5041 28.4356 15.548C28.6312 15.5187 28.8308 15.5318 29.0208 15.5865C29.2108 15.6413 29.3866 15.7363 29.5361 15.8651C29.6857 15.9939 29.8054 16.1534 29.8871 16.3326C29.9688 16.5119 30.0106 16.7066 30.0094 16.9034L29.9792 18.8312Z" fill="white"/>
<path d="M103.52 12.4905C103.893 13.0872 104.09 13.7758 104.09 14.4785C104.09 15.1811 103.893 15.8697 103.52 16.4664C102.763 17.611 98.6394 21.9936 97.2774 23.4017C96.097 24.6216 94.5005 25.8565 92.9191 25.8565H60.1637C55.7297 25.8565 55.4648 24.3505 55.4648 20.992V7.29472C55.4648 3.85345 56.4863 2.85194 59.5205 2.85194H92.9948C94.561 2.85194 95.9608 3.65013 97.5347 5.26158C98.9118 6.6396 102.975 11.6773 103.52 12.4905Z" fill="#33CCCC"/>
<path d="M62.9033 8.14546V8.06263C62.9033 7.61835 62.9033 7.18914 62.1466 7.18914H59.4C58.7568 7.18914 58.7266 7.53552 58.7266 8.07769V11.6922C59.81 10.1911 61.2432 8.97403 62.9033 8.14546Z" fill="white"/>
<path d="M81.2967 21.218V21.0223V12.3024C81.2967 8.65275 79.6774 6.82795 76.439 6.82795C75.5376 6.83857 74.6571 7.09936 73.8966 7.58096C73.0586 8.10116 72.3101 8.75203 71.6796 9.50868C71.3943 8.69087 70.8397 7.99299 70.1058 7.52825C69.2712 7.07045 68.3265 6.84907 67.3743 6.88819C65.9739 6.89344 64.6145 7.35939 63.5078 8.21349C63.2657 8.45446 58.7182 11.9786 58.7182 15.6533V21.2331C58.7182 21.4063 58.6274 22.084 59.3916 22.084H62.2442C63.1295 22.084 63.0462 21.5042 63.0462 21.2632V12.2271C63.5229 11.587 64.499 10.0584 66.1107 10.0584C66.3685 10.035 66.6279 10.0807 66.862 10.1905C67.0961 10.3004 67.2965 10.4706 67.4424 10.6834C67.766 11.3263 67.9072 12.0448 67.851 12.7617V19.8024V21.2482C67.851 21.4214 67.7602 22.0991 68.5244 22.0991H71.3467C72.232 22.0991 72.1488 21.5193 72.1488 21.2783V21.0825V12.1969C72.6633 11.5569 73.6621 10.0283 75.2132 10.0283C75.474 10.007 75.7359 10.0534 75.9732 10.163C76.2106 10.2725 76.4154 10.4414 76.5676 10.6533C76.8964 11.2945 77.0404 12.0139 76.9838 12.7316V19.7723V21.218C76.9838 21.3912 76.893 22.069 77.6572 22.069H80.5098C81.4026 22.0238 81.2967 21.4515 81.2967 21.218Z" fill="white"/>
<path d="M97.0269 17.671C96.5422 18.9682 95.654 20.0774 94.4918 20.8373C93.3295 21.5971 91.9538 21.9678 90.5651 21.8955C86.2068 21.8955 83.3013 18.9436 83.3013 14.5159C83.3013 10.0882 86.3279 6.98578 90.4138 6.98578C94.4997 6.98578 97.2237 9.80205 97.3977 14.3427C97.3977 14.9225 97.2539 15.4346 96.52 15.4346H87.2737C87.3342 17.8668 88.507 19.1997 90.5954 19.1997C91.1498 19.2135 91.6967 19.0691 92.1713 18.7836C92.646 18.498 93.0286 18.0832 93.2739 17.5882C93.3706 17.4481 93.5007 17.3342 93.6526 17.2566C93.8045 17.1791 93.9734 17.1403 94.1441 17.1439H96.5275C96.5991 17.1406 96.6704 17.1533 96.7363 17.1811C96.8022 17.2089 96.861 17.2512 96.9082 17.3047C96.9555 17.3583 96.99 17.4217 97.0092 17.4903C97.0285 17.559 97.0319 17.631 97.0194 17.7012L97.0269 17.671ZM90.4289 9.79452C88.6962 9.79452 87.5234 10.9918 87.2661 12.9647H93.4707C93.3118 11.2403 92.3735 9.79452 90.4289 9.79452Z" fill="white"/>
</svg>
